<?xml version="1.0" encoding="utf-8"?>
<svg viewBox="614.496 131.071 56.117 16.077" xmlns="http://www.w3.org/2000/svg">
  <g style="transform-origin: 501.581px 124.911px;" transform="matrix(1, 0, 0, 1, 0, -1e-12)">
    <path d="M 625.948 146.863 L 621.688 140.427 C 623.841 140.237 625.781 138.677 625.781 135.827 C 625.781 132.927 623.723 131.071 620.836 131.071 L 614.496 131.071 L 614.496 146.851 L 616.46 146.851 L 616.46 140.581 L 619.607 140.581 L 623.629 146.851 L 625.948 146.863 Z M 620.601 138.866 L 616.461 138.866 L 616.461 132.833 L 620.601 132.833 C 622.471 132.833 623.748 134.063 623.748 135.838 C 623.748 137.613 622.47 138.868 620.601 138.868 L 620.601 138.866 Z M 633.259 147.146 C 635.129 147.146 636.666 146.531 637.802 145.396 L 636.95 144.236 C 636.05 145.159 634.726 145.679 633.425 145.679 C 630.965 145.679 629.45 143.881 629.308 141.729 L 638.558 141.729 L 638.558 141.279 C 638.558 137.849 636.523 135.151 633.068 135.151 C 629.803 135.151 627.438 137.825 627.438 141.137 C 627.438 144.71 629.875 147.137 633.258 147.137 L 633.259 147.146 Z M 636.809 140.426 L 629.309 140.426 C 629.404 138.676 630.609 136.616 633.047 136.616 C 635.65 136.616 636.785 138.722 636.809 140.426 Z M 650.343 146.862 L 650.343 139.007 C 650.343 136.239 648.333 135.15 645.919 135.15 C 644.049 135.15 642.583 135.765 641.353 137.043 L 642.181 138.273 C 643.198 137.185 644.311 136.688 645.683 136.688 C 647.339 136.688 648.57 137.563 648.57 139.101 L 648.57 141.159 C 647.647 140.094 646.346 139.597 644.784 139.597 C 642.844 139.597 640.784 140.804 640.784 143.359 C 640.784 145.843 642.842 147.145 644.784 147.145 C 646.322 147.145 647.624 146.601 648.57 145.56 L 648.57 146.86 L 650.343 146.862 Z M 645.423 145.868 C 643.767 145.868 642.607 144.828 642.607 143.384 C 642.607 141.917 643.767 140.876 645.423 140.876 C 646.677 140.876 647.883 141.349 648.57 142.296 L 648.57 144.449 C 647.884 145.395 646.677 145.869 645.423 145.869 L 645.423 145.868 Z M 658.923 147.146 C 661.005 147.146 662.235 146.294 663.111 145.159 L 661.928 144.071 C 661.171 145.088 660.201 145.561 659.028 145.561 C 656.591 145.561 655.078 143.668 655.078 141.137 C 655.078 138.606 656.592 136.737 659.028 136.737 C 660.211 136.737 661.181 137.187 661.928 138.227 L 663.111 137.139 C 662.236 136.003 661.005 135.152 658.923 135.152 C 655.516 135.152 653.221 137.755 653.221 141.138 C 653.221 144.545 655.516 147.138 658.923 147.138 L 658.923 147.146 Z M 668.483 147.146 C 669.523 147.146 670.163 146.838 670.613 146.413 L 670.093 145.088 C 669.856 145.348 669.393 145.561 668.886 145.561 C 668.106 145.561 667.726 144.946 667.726 144.094 L 667.726 136.996 L 670.046 136.996 L 670.046 135.435 L 667.726 135.435 L 667.726 132.312 L 665.951 132.312 L 665.951 135.435 L 664.058 135.435 L 664.058 136.997 L 665.951 136.997 L 665.951 144.474 C 665.951 146.178 666.803 147.148 668.483 147.148 L 668.483 147.146 Z" fill="#00d8ff"/>
  </g>
</svg>