<?xml version="1.0" encoding="utf-8"?>
<svg viewBox="700.52 245.193 117.64 11.175" xmlns="http://www.w3.org/2000/svg">
  <path d="M 716.244 253.54 L 720.841 253.54 L 720.841 256.138 L 713.599 256.138 L 713.599 245.419 L 716.244 245.419 L 716.244 253.54 Z M 723.569 250.809 L 723.569 250.772 C 723.569 247.696 725.773 245.193 728.707 245.193 C 731.642 245.193 733.811 247.658 733.811 250.735 L 733.811 250.771 C 733.811 253.848 731.607 256.351 728.673 256.351 C 725.738 256.351 723.569 253.885 723.569 250.809 M 731.132 250.809 L 731.132 250.772 C 731.132 249.224 730.148 247.887 728.689 247.887 C 727.248 247.887 726.283 249.206 726.283 250.753 L 726.283 250.789 C 726.283 252.337 727.266 253.675 728.708 253.675 C 730.166 253.675 731.134 252.356 731.134 250.809 M 737.059 251.438 L 737.059 245.419 L 739.736 245.419 L 739.736 251.381 C 739.736 252.929 740.43 253.653 741.471 253.653 C 742.512 253.653 743.206 252.945 743.206 251.454 L 743.206 245.416 L 745.883 245.416 L 745.883 251.359 C 745.883 254.816 744.15 256.328 741.425 256.328 C 738.729 256.328 737.034 254.801 737.034 251.436 M 749.913 245.419 L 753.576 245.419 C 756.967 245.419 758.951 247.618 758.951 250.711 L 758.951 250.748 C 758.951 253.844 756.949 256.124 753.525 256.124 L 749.914 256.124 L 749.914 245.404 L 749.913 245.419 Z M 753.626 253.502 C 755.204 253.502 756.254 252.527 756.254 250.789 L 756.254 250.753 C 756.254 249.033 755.203 248.041 753.626 248.041 L 752.559 248.041 L 752.559 253.487 L 753.626 253.487 L 753.626 253.502 Z M 762.805 245.419 L 770.418 245.419 L 770.418 248.017 L 765.434 248.017 L 765.434 249.852 L 769.944 249.852 L 769.944 252.318 L 765.434 252.318 L 765.434 256.14 L 762.807 256.14 L 762.805 245.419 Z M 776.708 253.54 L 781.32 253.54 L 781.32 256.138 L 774.079 256.138 L 774.079 245.419 L 776.706 245.419 L 776.708 253.54 Z M 788.205 245.354 L 790.747 245.354 L 794.8 256.151 L 791.982 256.151 L 791.288 254.24 L 787.624 254.24 L 786.944 256.151 L 784.18 256.151 L 788.215 245.354 L 788.205 245.354 Z M 790.528 251.927 L 789.477 248.888 L 788.409 251.927 L 790.528 251.927 Z M 798.204 245.431 L 802.697 245.431 C 804.155 245.431 805.155 245.851 805.8 246.596 C 806.359 247.207 806.648 248.03 806.648 249.101 L 806.648 249.138 C 806.648 250.781 805.867 251.871 804.696 252.436 L 806.969 256.182 L 803.917 256.182 L 802.001 252.932 L 800.837 252.932 L 800.837 256.182 L 798.204 256.182 L 798.204 245.431 Z M 802.577 250.571 C 803.477 250.571 803.985 250.074 803.985 249.31 L 803.985 249.273 C 803.985 248.433 803.443 248.012 802.561 248.012 L 800.831 248.012 L 800.831 250.573 L 802.566 250.573 L 802.577 250.571 Z M 813.056 253.617 L 818.16 253.617 L 818.16 256.14 L 810.445 256.14 L 810.445 245.421 L 818.092 245.421 L 818.092 247.944 L 813.056 247.944 L 813.056 249.569 L 817.617 249.569 L 817.617 251.92 L 813.056 251.92 L 813.056 253.617 Z M 707.831 252.067 C 707.458 253.003 706.677 253.673 705.661 253.673 C 704.219 253.673 703.236 252.329 703.236 250.787 L 703.236 250.75 C 703.236 249.202 704.203 247.884 705.643 247.884 C 706.727 247.884 707.558 248.617 707.897 249.662 L 710.678 249.662 C 710.237 247.101 708.237 245.21 705.658 245.21 C 702.725 245.21 700.52 247.714 700.52 250.789 L 700.52 250.826 C 700.524 253.903 702.695 256.368 705.628 256.368 C 708.138 256.368 710.106 254.533 710.613 252.087 L 707.832 252.067 L 707.831 252.067 Z" fill="#404041" style=""/>
</svg>