<?xml version="1.0" encoding="utf-8"?>
<svg viewBox="704.819 244.3212 111.548 19.7778" xmlns="http://www.w3.org/2000/svg">
  <path d="M 712.593 259.639 C 710.473 259.639 708.653 258.889 707.119 257.389 C 705.585 255.889 704.819 254.085 704.819 251.981 C 704.819 249.877 705.584 248.073 707.119 246.573 C 708.654 245.073 710.476 244.322 712.593 244.322 C 714.554 244.293 716.445 245.054 717.842 246.432 L 716.365 247.909 C 715.354 246.932 713.997 246.394 712.592 246.414 C 711.062 246.414 709.762 246.954 708.696 248.041 C 707.648 249.082 707.071 250.505 707.099 251.982 C 707.099 253.528 707.629 254.839 708.696 255.922 C 709.709 256.986 711.123 257.576 712.592 257.549 C 714.15 257.549 715.437 257.049 716.462 256.015 C 717.062 255.415 717.462 254.515 717.602 253.38 L 712.596 253.38 L 712.596 251.288 L 719.64 251.288 C 719.715 251.66 719.74 252.088 719.74 252.588 C 719.74 254.644 719.137 256.274 717.927 257.483 C 716.555 258.918 714.777 259.633 712.582 259.633 L 712.593 259.639 Z M 728.963 258.239 C 728.003 259.179 726.833 259.639 725.451 259.639 C 724.069 259.639 722.897 259.169 721.939 258.239 C 720.981 257.309 720.501 256.126 720.501 254.719 C 720.501 253.312 720.981 252.139 721.939 251.199 C 722.897 250.259 724.069 249.799 725.451 249.799 C 726.833 249.799 728.005 250.269 728.963 251.199 C 729.921 252.129 730.401 253.315 730.401 254.719 C 730.401 256.123 729.921 257.299 728.963 258.239 Z M 723.489 256.859 C 723.993 257.407 724.707 257.716 725.452 257.708 C 726.212 257.708 726.866 257.426 727.415 256.858 C 727.964 256.29 728.237 255.578 728.237 254.718 C 728.237 253.848 727.967 253.13 727.424 252.568 C 726.881 252.006 726.226 251.728 725.452 251.728 C 724.705 251.716 723.989 252.022 723.48 252.568 C 722.937 253.128 722.667 253.844 722.667 254.718 C 722.667 255.576 722.94 256.291 723.489 256.858 L 723.489 256.859 Z M 739.762 258.239 C 738.802 259.179 737.632 259.639 736.25 259.639 C 734.868 259.639 733.696 259.169 732.738 258.239 C 731.78 257.309 731.3 256.126 731.3 254.719 C 731.3 253.312 731.78 252.139 732.738 251.199 C 733.696 250.259 734.868 249.799 736.25 249.799 C 737.632 249.799 738.804 250.269 739.762 251.199 C 740.72 252.129 741.2 253.315 741.2 254.719 C 741.2 256.123 740.72 257.299 739.762 258.239 Z M 734.288 256.859 C 734.792 257.407 735.506 257.716 736.251 257.708 C 737.011 257.708 737.665 257.426 738.214 256.858 C 738.763 256.29 739.036 255.578 739.036 254.718 C 739.036 253.848 738.766 253.13 738.223 252.568 C 737.68 252.006 737.025 251.728 736.251 251.728 C 735.504 251.716 734.788 252.022 734.279 252.568 C 733.736 253.128 733.466 253.844 733.466 254.718 C 733.466 255.576 733.739 256.291 734.288 256.858 L 734.288 256.859 Z M 746.861 264.079 C 745.766 264.079 744.844 263.785 744.097 263.199 C 743.35 262.613 742.815 261.935 742.491 261.161 L 744.379 260.378 C 744.577 260.852 744.879 261.263 745.312 261.612 C 745.745 261.961 746.252 262.134 746.864 262.134 C 747.686 262.134 748.332 261.884 748.797 261.387 C 749.262 260.89 749.497 260.171 749.497 259.237 L 749.497 258.537 L 749.422 258.537 C 748.822 259.284 747.945 259.659 746.826 259.659 C 745.568 259.659 744.466 259.179 743.519 258.221 C 742.589 257.306 742.076 256.049 742.099 254.745 C 742.075 253.433 742.588 252.168 743.519 251.242 C 744.464 250.279 745.569 249.795 746.826 249.795 C 747.386 249.795 747.894 249.9 748.348 250.113 C 748.802 250.326 749.161 250.587 749.422 250.896 L 749.497 250.896 L 749.497 250.102 L 751.553 250.102 L 751.553 258.959 C 751.553 260.679 751.115 261.963 750.235 262.819 C 749.355 263.669 748.233 264.099 746.862 264.099 L 746.861 264.079 Z M 747.011 257.707 C 747.733 257.72 748.422 257.408 748.89 256.858 C 749.394 256.291 749.646 255.585 749.646 254.736 C 749.646 253.878 749.394 253.16 748.89 252.586 C 748.425 252.031 747.734 251.716 747.011 251.728 C 746.251 251.728 745.603 252.016 745.069 252.586 C 744.535 253.156 744.265 253.874 744.265 254.736 C 744.265 255.582 744.532 256.291 745.069 256.858 C 745.606 257.425 746.252 257.708 747.011 257.708 L 747.011 257.707 Z M 755.213 244.842 L 755.213 259.342 L 753.046 259.342 L 753.046 244.842 L 755.213 244.842 Z M 761.153 259.638 C 759.757 259.638 758.593 259.164 757.659 258.218 C 756.725 257.272 756.257 256.102 756.257 254.706 C 756.257 253.262 756.707 252.076 757.611 251.156 C 758.468 250.254 759.664 249.752 760.909 249.772 C 761.506 249.772 762.062 249.88 762.572 250.099 C 763.046 250.293 763.477 250.579 763.842 250.939 C 764.146 251.241 764.415 251.576 764.646 251.938 C 764.836 252.247 764.999 252.572 765.132 252.91 L 765.357 253.47 L 758.763 256.202 C 759.263 257.198 760.063 257.697 761.155 257.697 C 762.151 257.697 762.962 257.244 763.583 256.334 L 765.263 257.456 C 764.888 258.016 764.36 258.521 763.675 258.969 C 762.99 259.417 762.147 259.639 761.151 259.639 L 761.153 259.638 Z M 758.407 254.558 L 762.807 252.728 C 762.681 252.416 762.453 252.164 762.107 251.972 C 761.759 251.777 761.365 251.678 760.967 251.684 C 760.331 251.684 759.737 251.944 759.184 252.467 C 758.631 252.99 758.364 253.689 758.389 254.559 L 758.407 254.558 Z M 776.737 259.638 C 774.767 259.638 773.117 258.972 771.785 257.638 C 770.453 256.304 769.785 254.643 769.785 252.65 C 769.785 250.657 770.451 248.994 771.785 247.662 C 773.119 246.33 774.768 245.662 776.737 245.662 C 778.754 245.662 780.393 246.392 781.65 247.847 L 780.455 249.007 C 779.555 247.873 778.305 247.307 776.735 247.307 C 775.275 247.307 774.049 247.799 773.035 248.784 C 772.021 249.769 771.531 251.056 771.531 252.65 C 771.531 254.244 772.031 255.534 773.035 256.52 C 774.039 257.506 775.268 257.997 776.735 257.997 C 778.341 257.997 779.712 257.349 780.835 256.055 L 782.03 257.25 C 781.403 257.997 780.617 258.594 779.73 258.997 C 778.788 259.43 777.762 259.649 776.726 259.639 L 776.737 259.638 Z M 785.293 259.342 L 783.573 259.342 L 783.573 245.965 L 785.293 245.965 L 785.293 259.342 Z M 788.096 251.282 C 788.981 250.355 790.096 249.889 791.478 249.889 C 792.86 249.889 793.975 250.354 794.86 251.282 C 795.745 252.21 796.187 253.382 796.187 254.767 C 796.187 256.152 795.747 257.324 794.86 258.252 C 793.973 259.18 792.86 259.645 791.478 259.645 C 790.096 259.645 788.981 259.18 788.096 258.252 C 787.211 257.324 786.769 256.152 786.769 254.767 C 786.769 253.382 787.209 252.21 788.096 251.282 Z M 789.376 257.165 C 789.976 257.768 790.67 258.071 791.476 258.071 C 792.282 258.071 792.976 257.768 793.576 257.165 C 794.176 256.562 794.464 255.76 794.464 254.765 C 794.464 253.77 794.167 252.967 793.576 252.365 C 792.985 251.763 792.282 251.459 791.476 251.459 C 790.67 251.459 789.976 251.762 789.376 252.365 C 788.776 252.968 788.488 253.77 788.488 254.765 C 788.488 255.76 788.785 256.563 789.376 257.165 Z M 805.696 259.342 L 804.051 259.342 L 804.051 258.072 L 803.976 258.072 C 803.716 258.507 803.316 258.879 802.781 259.172 C 802.246 259.465 801.681 259.632 801.081 259.632 C 799.934 259.632 799.067 259.284 798.476 258.585 C 797.885 257.886 797.588 256.952 797.588 255.782 L 797.588 250.176 L 799.308 250.176 L 799.308 255.5 C 799.308 257.208 800.061 258.06 801.568 258.06 C 802.252 258.074 802.901 257.754 803.306 257.202 C 803.75 256.638 803.987 255.939 803.978 255.221 L 803.978 250.176 L 805.698 250.176 L 805.698 259.333 L 805.696 259.342 Z M 811.524 259.639 C 810.341 259.639 809.318 259.171 808.46 258.237 C 807.602 257.303 807.172 256.145 807.172 254.761 C 807.172 253.377 807.602 252.219 808.46 251.285 C 809.318 250.351 810.342 249.883 811.524 249.883 C 812.22 249.883 812.848 250.033 813.404 250.33 C 813.96 250.627 814.374 251.002 814.647 251.452 L 814.722 251.452 L 814.647 250.182 L 814.647 245.962 L 816.367 245.962 L 816.367 259.342 L 814.722 259.342 L 814.722 258.072 L 814.647 258.072 C 814.374 258.519 813.96 258.894 813.404 259.194 C 812.849 259.488 812.221 259.638 811.524 259.638 L 811.524 259.639 Z M 811.804 258.069 C 812.589 258.08 813.341 257.753 813.869 257.172 C 814.436 256.575 814.719 255.77 814.719 254.772 C 814.719 253.774 814.437 252.959 813.869 252.372 C 813.341 251.791 812.589 251.464 811.804 251.475 C 811.006 251.475 810.321 251.778 809.748 252.381 C 809.175 252.984 808.89 253.786 808.89 254.781 C 808.89 255.776 809.175 256.579 809.748 257.181 C 810.271 257.764 811.02 258.094 811.804 258.087 L 811.804 258.069 Z" fill="#5f6368"/>
</svg>